# xmcd CD database file
#
# Track frame offsets:
#	150
#	15993
#	31036
#	45531
#	57155
#	71273
#	84435
#	102868
#	115611
#	128854
#	142079
#	162485
#	179074
#	196065
#
# Disc length: 2811 seconds
#
# Revision: 1
# Processed by: cddbd v1.4PL0 Copyright (c) Steve Scherf et al.
# Submitted via: CDex 1.50Beta7
#
DISCID=b10af90e
DTITLE=Frantisek Nedved - Treti pokus
DYEAR=1900
DGENRE=
TTITLE0=Treti pokus
TTITLE1=Tvou vuni stale znam
TTITLE2=Rejdiva
TTITLE3=Loudava
TTITLE4=Evelyn
TTITLE5=Jsem tvuj dest
TTITLE6=Sydney
TTITLE7=Gruntorad
TTITLE8=Kluk a psik
TTITLE9=Posledni ruze
TTITLE10=Touha
TTITLE11=Az te smrtka vyzve k tanci
TTITLE12=Svatebni
TTITLE13=Floky
EXTD=
EXTT0=
EXTT1=
EXTT2=
EXTT3=
EXTT4=
EXTT5=
EXTT6=
EXTT7=
EXTT8=
EXTT9=
EXTT10=
EXTT11=
EXTT12=
EXTT13=
PLAYORDER=
